<svg width="18" height="18" viewBox="0 0 18 18" fill="none" xmlns="http://www.w3.org/2000/svg">
<path d="M17.3691 0.955078L13.916 0.158203C13.5508 0.0585938 13.1523 0.257812 12.9863 0.623047L11.3926 4.3418C11.2598 4.67383 11.3594 5.03906 11.625 5.27148L13.6504 6.93164C12.4551 9.45508 10.3633 11.5801 7.77344 12.8086L6.11328 10.7832C5.88086 10.5176 5.51562 10.418 5.18359 10.5508L1.46484 12.1445C1.09961 12.3105 0.933594 12.709 1 13.0742L1.79688 16.5273C1.89648 16.8926 2.19531 17.125 2.59375 17.125C11.0938 17.125 18 10.252 18 1.71875C18 1.35352 17.7344 1.05469 17.3691 0.955078Z" fill="#2E364E"/>
</svg>
