<svg width="44" height="44" viewBox="0 0 44 44" fill="none" xmlns="http://www.w3.org/2000/svg">
<rect width="44" height="44" fill="white"/>
<path d="M25.089 14.3723H13.4671C12.3766 14.3723 11.4908 15.258 11.4908 16.3486V33.0238C11.4908 34.1143 12.3766 35 13.4671 35H25.089C26.1796 35 27.0653 34.1143 27.0653 33.0238V16.3486C27.0602 15.258 26.1744 14.3723 25.089 14.3723ZM25.6778 33.0186C25.6778 33.3463 25.4116 33.6125 25.0839 33.6125H13.462C13.1343 33.6125 12.8681 33.3463 12.8681 33.0186V16.3486C12.8681 16.0209 13.1343 15.7547 13.462 15.7547H25.0839C25.4116 15.7547 25.6778 16.0209 25.6778 16.3486V33.0186Z" fill="#315298"/>
<path d="M29.533 10H17.9111C16.8205 10 15.9348 10.8857 15.9348 11.9762C15.9348 12.3602 16.242 12.6674 16.626 12.6674C17.01 12.6674 17.3172 12.3602 17.3172 11.9762C17.3172 11.6486 17.5834 11.3823 17.9111 11.3823H29.533C29.8607 11.3823 30.1269 11.6486 30.1269 11.9762V28.6514C30.1269 28.9791 29.8607 29.2453 29.533 29.2453C29.149 29.2453 28.8418 29.5525 28.8418 29.9365C28.8418 30.3205 29.149 30.6277 29.533 30.6277C30.6235 30.6277 31.5093 29.742 31.5093 28.6514V11.9762C31.5093 10.8857 30.6235 10 29.533 10Z" fill="#315298"/>
</svg>
