<svg width="15" height="15" viewBox="0 0 15 15" fill="none" xmlns="http://www.w3.org/2000/svg">
<path d="M7.3875 0.00712675C4.36167 0.00712675 1.48834 -0.26204 0.390835 2.55463C-0.0624985 3.71796 0.00333494 5.22879 0.00333494 7.39213C0.00333494 9.29046 -0.0574985 11.0746 0.390835 12.2288C1.48584 15.0471 4.3825 14.7771 7.38584 14.7771C10.2833 14.7771 13.2708 15.0788 14.3817 12.2288C14.8358 11.0538 14.7692 9.56546 14.7692 7.39213C14.7692 4.50713 14.9283 2.64463 13.5292 1.24629C12.1125 -0.170373 10.1967 0.00712675 7.38417 0.00712675H7.3875ZM6.72584 1.33796C13.0375 1.32796 13.8408 0.626294 13.3975 10.3738C13.24 13.8213 10.615 13.443 7.38834 13.443C1.505 13.443 1.33584 13.2746 1.33584 7.38879C1.33584 1.43463 1.8025 1.34129 6.72584 1.33629V1.33796ZM11.3292 2.56379C10.84 2.56379 10.4433 2.96046 10.4433 3.44963C10.4433 3.93879 10.84 4.33546 11.3292 4.33546C11.8183 4.33546 12.215 3.93879 12.215 3.44963C12.215 2.96046 11.8183 2.56379 11.3292 2.56379ZM7.3875 3.59963C5.29334 3.59963 3.59584 5.29796 3.59584 7.39213C3.59584 9.48629 5.29334 11.1838 7.3875 11.1838C9.48167 11.1838 11.1783 9.48629 11.1783 7.39213C11.1783 5.29796 9.48167 3.59963 7.3875 3.59963ZM7.3875 4.93046C10.6417 4.93046 10.6458 9.85379 7.3875 9.85379C4.13417 9.85379 4.12917 4.93046 7.3875 4.93046Z" fill="white"/>
</svg>
