<svg width="18" height="12" viewBox="0 0 18 12" fill="none" xmlns="http://www.w3.org/2000/svg">
<path d="M16.5313 0H0.71875C0.299479 0 0 0.301508 0 0.723618V11.2764C0 11.6985 0.299479 12 0.71875 12H16.5313C16.9505 12 17.25 11.6985 17.25 11.2764V0.723618C17.25 0.301508 16.9505 0 16.5313 0ZM11.2604 6.51256C12.5781 7.41709 16.0521 10.1307 16.0521 10.1307C16.1719 10.2513 16.1719 10.4925 16.112 10.6131C16.0521 10.7337 15.8125 10.8543 15.6927 10.7337C15.6927 10.7337 12.0391 8.0804 10.6016 7.11558C10.5417 7.05528 10.4818 7.11558 10.4818 7.11558L8.92448 8.38191C8.86458 8.44221 8.74479 8.50251 8.625 8.50251C8.50521 8.50251 8.38542 8.44221 8.32552 8.38191L6.76823 7.11558C6.76823 7.11558 6.70833 7.05528 6.64844 7.11558C5.27083 8.0804 1.61719 10.794 1.61719 10.794C1.4974 10.9146 1.19792 10.794 1.13802 10.6734C1.07812 10.5528 1.07813 10.3116 1.19792 10.191C1.19792 10.191 4.67188 7.53769 5.98958 6.63317C6.04948 6.57286 5.98958 6.51256 5.98958 6.51256L1.07812 1.98995C0.898438 1.80905 0.838542 1.56784 0.958333 1.38693C1.01823 1.26633 1.13802 1.20603 1.25781 1.20603C1.3776 1.20603 1.4375 1.20603 1.55729 1.26633L8.50521 7.35678C8.5651 7.41709 8.625 7.41709 8.6849 7.41709C8.74479 7.41709 8.80469 7.41709 8.86458 7.35678L15.7526 1.26633C15.8125 1.20603 15.8724 1.20603 15.9922 1.20603C16.112 1.20603 16.2318 1.26633 16.2917 1.38693C16.4115 1.56784 16.3516 1.80905 16.1719 1.98995L11.2604 6.45226C11.2604 6.39196 11.2005 6.45226 11.2604 6.51256Z" fill="white"/>
</svg>
