<svg width="14" height="14" viewBox="0 0 14 14" fill="none" xmlns="http://www.w3.org/2000/svg">
<path fill-rule="evenodd" clip-rule="evenodd" d="M0.777778 0C0.347667 0 0 0.347667 0 0.777778C0 8.07956 5.92044 14 13.2222 14C13.6523 14 14 13.6523 14 13.2222V10.5C14 10.0707 13.6523 9.723 13.2222 9.723C12.2516 9.723 11.3182 9.56667 10.444 9.28045C10.3662 9.25556 10.2846 9.24311 10.2037 9.24311C10.0053 9.24311 9.80622 9.31933 9.65456 9.471L7.94267 11.1844C5.74 10.0644 3.93944 8.26389 2.81789 6.062L4.529 4.34544C4.74289 4.13233 4.80589 3.82511 4.71956 3.556C4.43333 2.681 4.277 1.74767 4.277 0.777778C4.277 0.347667 3.92933 0 3.5 0H0.777778Z" fill="white"/>
</svg>
