<svg width="50" height="50" viewBox="0 0 50 50" fill="none" xmlns="http://www.w3.org/2000/svg">
<rect width="50" height="50" rx="2" fill="black"/>
<path d="M25.2711 18.8555L32.0914 25.6758C32.2555 25.8398 32.3375 26.0391 32.3375 26.2734C32.3375 26.5078 32.2555 26.707 32.0914 26.8711L31.318 27.6445C31.1539 27.8086 30.9547 27.9023 30.7203 27.9258C30.486 27.9258 30.2868 27.8438 30.1227 27.6797L24.6735 22.2305L19.2243 27.6797C19.0602 27.8438 18.861 27.9258 18.6266 27.9258C18.3922 27.9023 18.193 27.8086 18.0289 27.6445L17.2555 26.8711C17.0914 26.707 17.0094 26.5078 17.0094 26.2734C17.0094 26.0391 17.0914 25.8398 17.2555 25.6758L24.0758 18.8555C24.2399 18.668 24.4391 18.5742 24.6735 18.5742C24.9078 18.5742 25.1071 18.668 25.2711 18.8555Z" fill="white"/>
</svg>
