<svg width="29" height="29" viewBox="0 0 29 29" fill="none" xmlns="http://www.w3.org/2000/svg">
<path d="M27.3008 14.5C27.3008 7.47258 21.5274 1.69922 14.5 1.69922C14.2261 1.69922 13.8982 1.70829 13.6285 1.72488C12.1576 0.609772 10.348 0 8.49609 0C3.81174 0 0 3.86838 0 8.55273C0 10.4046 0.609772 12.2142 1.72488 13.6851C1.70829 13.9548 1.69922 14.2261 1.69922 14.5C1.69922 21.5274 7.47258 27.3008 14.5 27.3008C14.7739 27.3008 15.0452 27.2917 15.3149 27.2751C16.7858 28.3902 18.5954 29 20.4473 29C25.1316 29 29 25.1883 29 20.5039C29 18.652 28.3902 16.7858 27.2751 15.3149C27.2917 15.0452 27.3008 14.7739 27.3008 14.5ZM14.5 23.0527C12.805 23.0527 11.133 22.5972 9.89574 21.7717C8.81204 21.0486 7.85778 20.0603 8.4222 18.8861C9.00674 17.6887 10.6374 17.7363 11.2673 18.5117C11.7186 19.0669 13.0464 19.6295 14.6035 19.6295C15.8656 19.6295 17.8984 18.9658 17.8984 17.9551C17.8984 16.9351 15.872 16.1992 14.5 16.1992C10.2964 16.1992 7.64648 13.6524 7.64648 11.1016C7.64648 8.62442 10.0473 6.10546 14.4958 6.10391C16.1809 6.10325 17.8668 6.49664 19.0467 7.28496C20.1311 8.00713 21.0856 8.99635 20.5212 10.1705C19.9727 11.2943 18.3845 11.4188 17.6752 10.5431C17.2247 9.98977 15.9536 9.42712 14.3962 9.42712C13.1344 9.42712 11.0449 10.0909 11.0449 11.1016C11.0449 12.1215 13.128 12.8008 14.5 12.8008C18.7036 12.8008 21.2969 15.4043 21.2969 17.9551C21.2969 20.5178 18.6918 23.0527 14.5 23.0527Z" fill="#212634"/>
</svg>
