<svg width="15" height="8" viewBox="0 0 15 8" fill="none" xmlns="http://www.w3.org/2000/svg">
<path fill-rule="evenodd" clip-rule="evenodd" d="M7.35023 7.96315H8.24255C8.24255 7.96315 8.5165 7.93382 8.64957 7.79454C8.7748 7.66991 8.7748 7.42799 8.7748 7.42799C8.7748 7.42799 8.75915 6.29904 9.31489 6.13776C9.8628 5.97648 10.5751 7.22273 11.3187 7.70657C11.8822 8.07311 12.3127 7.99247 12.3127 7.99247L14.3165 7.96315C14.3165 7.96315 15.3654 7.9045 14.8645 7.13476C14.8253 7.06878 14.5748 6.56295 13.3773 5.52196C12.1249 4.42966 12.2893 4.6056 13.7999 2.72156C14.7236 1.57061 15.0914 0.866841 14.974 0.566274C14.8645 0.280369 14.1835 0.353678 14.1835 0.353678L11.9292 0.36834C11.9292 0.36834 11.7648 0.346347 11.6396 0.419656C11.5222 0.485634 11.4439 0.646914 11.4439 0.646914C11.4439 0.646914 11.0839 1.53395 10.6142 2.29637C9.61233 3.8945 9.20531 3.97514 9.04093 3.87984C8.65739 3.64525 8.75132 2.94882 8.75132 2.45765C8.75132 0.910826 9.0018 0.265707 8.26603 0.0970966C8.02338 0.0384495 7.84335 0.00179532 7.21717 0.00179532C6.41095 -0.00553558 5.72998 0.00179541 5.34644 0.177737C5.08814 0.295031 4.89246 0.558943 5.00987 0.573605C5.15858 0.595598 5.49516 0.661576 5.67519 0.888834C5.91001 1.18207 5.89435 1.84185 5.89435 1.84185C5.89435 1.84185 6.02742 3.65991 5.58126 3.88717C5.27599 4.04112 4.86115 3.72589 3.96883 2.27437C3.50702 1.53395 3.16262 0.712892 3.16262 0.712892C3.16262 0.712892 3.09217 0.558943 2.97476 0.478304C2.83387 0.375671 2.63036 0.346347 2.63036 0.346347L0.485677 0.361009C0.485677 0.361009 0.164757 0.36834 0.047347 0.500296C-0.0544081 0.61759 0.0395196 0.85951 0.0395196 0.85951C0.0395196 0.85951 1.71457 4.53229 3.6166 6.38701C5.37775 8.07311 7.35023 7.96315 7.35023 7.96315Z" fill="white"/>
</svg>
